<svg viewBox="550 264 394 372" xmlns="http://www.w3.org/2000/svg" version="1.2" style="max-height: 500px" width="394" height="372">
	<title>eps-ai</title>
	<defs>
		<linearGradient gradientTransform="matrix(325.187,0,0,300.71,585.481,295.253)" gradientUnits="userSpaceOnUse" x2="1" id="g1">
			<stop stop-color="#ee3a65" offset="0"/>
			<stop stop-color="#a7237b" offset="1"/>
		</linearGradient>
		<linearGradient gradientTransform="matrix(213.557,107.505,-122.141,242.631,657.866,467.538)" gradientUnits="userSpaceOnUse" x2="1" id="g2">
			<stop stop-color="#000000" offset="0"/>
			<stop stop-color="#0f2c6c" offset=".564"/>
			<stop stop-color="#194bb9" offset="1"/>
		</linearGradient>
	</defs>
	<style>
		.s0 { fill: #fefefe } 
		.s1 { fill: url(#g1) } 
		.s2 { fill: url(#g2) } 
	</style>
	<g id="_Artboards_">
	</g>
	<g id="Layer 1">
		<path d="m1499.5 1000.4h-1500v-1000h1500z" class="s0" id="&lt;Path&gt;"/>
		<g id="&lt;Group&gt;">
			<g id="&lt;Group&gt;">
				<path d="m910.7 589.8l-0.6 0.3c-22.4 10.2-48.5 6.8-67.9-8.4-19.2-15-49.8-31.1-94.3-33 0 0-52.6 1-94.1 33.2-11.8 9.2-26.2 14-40.6 14-9.4 0-18.9-2-27.7-6.1l0.7-0.6-0.7-0.3 7.8-16.8 118.5-253.8c3.3-7 8.5-12.8 14.8-16.8 6.3-4 13.7-6.2 21.5-6.2 15.5 0 29.6 9 36.2 23l91.6 196.1 13.4 28.7c-18-18.4-39-32.6-61.6-42.6q-5.8-2.6-11.8-4.8l-67.8-145.9-68 146.2-12.2 26.3 0.7-0.6c0 0 45.2-23.5 99.7-16.8 20.3 2.5 40.4 7.9 59.4 16.3 26.4 11.7 50.7 29 70.5 52.3q6.3 7.4 12 15.6 0.2 0.4 0.5 0.7z" class="s1" id="&lt;Path&gt;"/>
				<path d="m910.7 589.8l-0.6 0.3c-22.4 10.2-48.5 6.8-67.9-8.4-19.2-15-49.8-31.1-94.3-33 0 0-52.6 1-94.1 33.2-11.8 9.2-26.2 14-40.6 14-9.4 0-18.9-2-27.7-6.1l0.7-0.6-0.7-0.3 7.8-16.8 118.5-253.8c3.3-7 8.5-12.8 14.8-16.8 6.3-4 13.7-6.2 21.5-6.2 15.5 0 29.6 9 36.2 23l91.6 196.1 13.4 28.7c-18-18.4-39-32.6-61.6-42.6q-5.8-2.6-11.8-4.8l-67.8-145.9-68 146.2-12.2 26.3 0.7-0.6c0 0 45.2-23.5 99.7-16.8 20.3 2.5 40.4 7.9 59.4 16.3 26.4 11.7 50.7 29 70.5 52.3q6.3 7.4 12 15.6 0.2 0.4 0.5 0.7z" class="s2" id="&lt;Path&gt;"/>
			</g>
			<g id="&lt;Group&gt;">
				<g id="&lt;Group&gt;">
					<g id="&lt;Group&gt;">
					</g>
				</g>
			</g>
		</g>
	</g>
</svg>